<svg xmlns="http://www.w3.org/2000/svg" width="512" height="512" viewBox="0 0 512 512" style="" data-bbox="9.751 48 502.249 263.16">
  <rect data-fl-background="" x="0" y="0" width="512" height="512" fill="#fcfdff" />
  <g transform="matrix(0.9481002688407898, 0, 0, 0.9481002688407898, -16.197887332662617, 9.099449157714844)">
    <svg version="1.1" id="Calque_1" xmlns="http://www.w3.org/2000/svg" x="0px" y="0px" viewBox="0 0 360 360" enable-background="new 0 0 360 360" width="360" height="360">
      <g>
        <g>
          <path class="st0" d="M164.79 318.97c0-0.01 0-0.02 0-0.02" fill="none" />
          <path class="st0" d="M198.16 312.86c-0.01-0.01-0.03-0.01-0.04-0.02" fill="none" />
          <path class="st0" d="M155.83 318.58C155.81 318.54 155.85 318.63 155.83 318.58" fill="none" />
        </g>
        <g>
          <path class="st1" d="M294.49 128.86c70.53 50.91 10.12 137.52-40.22 157.37c-0.96 0.38-1.82 0.83-2.66 1.16&#xA;&#x9;&#x9;&#x9;c-0.5 0.19-1.01 0.39-1.53 0.6c2.68-1.38 11.22-6.33 18.89-14.77c31.65-30.53 26.66-68.91 15.24-105.06&#xA;&#x9;&#x9;&#x9;c-4.6-14.57-10.86-34.4-26.53-48.56c-0.02-0.02-0.05-0.04-0.07-0.06c0.67 0.02 1.34 0.04 2 0.06&#xA;&#x9;&#x9;&#x9;C282.34 120.52 294.49 128.86 294.49 128.86z" fill="#4D4DFF" />
          <g>
            <path class="st2" d="M284.21 168.16c-4.6-14.57-10.86-34.4-26.53-48.56c-0.02-0.02-0.04-0.04-0.07-0.06&#xA;&#x9;&#x9;&#x9;&#x9;c-19.37-0.4-46 4.63-78.99 24.11c-1.91 11.86-3.45 21.52-4.71 28.85c-1.45 9.14-3.97 20.05-2.81 29.24&#xA;&#x9;&#x9;&#x9;&#x9;c0.02 0.18 0.04 0.34 0.06 0.52c-0.01 0-0.01 0-0.02 0.01c0.35 2.69 0.98 4.44 1.8 5.43c0.81 0.99 1.82 1.23 2.96 0.87&#xA;&#x9;&#x9;&#x9;&#x9;c0 0 0.02-0.01 0.03-0.01c0.03-0.01 0.08-0.03 0.11-0.04c1.76-0.6 3.8-2.56 5.89-5.31c1.75-2.21 3.57-5.13 5.49-8.71&#xA;&#x9;&#x9;&#x9;&#x9;c0.15-0.28 0.3-0.55 0.45-0.83c0 0 0 0-0.01 0c1.43-2.73 2.92-5.82 4.47-9.27l1.05-2.3c-0.03-0.02-0.05-0.04-0.08-0.06&#xA;&#x9;&#x9;&#x9;&#x9;c11.48-28.03 17.24-42.1 17.24-42.1c1.02-2.17 2.34-3.77 3.84-4.94c3.39-2.8 14.76-1.63 13.86 8.9&#xA;&#x9;&#x9;&#x9;&#x9;c-0.18 1.01-0.35 2.03-0.67 3.15c-6.79 19.13-12.27 34.51-16.43 46.17l-1.95 5.42l-7.8 21.87c-2.55 7.25 1.96 4.51 5.55 1.86&#xA;&#x9;&#x9;&#x9;&#x9;c3.31-2.56 6.68-6.28 10-10.4c0.38-0.48 0.76-0.97 1.13-1.46c4.01-5.13 7.99-10.87 11.91-16.21c3.94-5.36 7.8-10.31 11.53-13.83&#xA;&#x9;&#x9;&#x9;&#x9;c2.93-2.62 5.7-3.58 8.62-3.08c0.37 0.07 0.7 0.15 1 0.28c0 0 0.01 0 0.03 0.01c0.01 0 0.03 0 0.04 0.01&#xA;&#x9;&#x9;&#x9;&#x9;c0.07 0.03 0.12 0.05 0.18 0.08c0.04 0.01 0.07 0.03 0.11 0.06c0.71 0.4 2.22 1.68 2.13 5.34c0 0.07-0.01 0.15-0.01 0.24v0.11&#xA;&#x9;&#x9;&#x9;&#x9;c-0.34 5.47-4 13-5.22 15.35c-2.8 4.42-5.4 8.53-7.8 12.33c-5.47 8.66-9.88 15.69-13.22 21.11c-1.36 2.18-2.57 4.09-3.58 5.75&#xA;&#x9;&#x9;&#x9;&#x9;c-2.44 4.01-16.83 6.89-23.55 7.3c-13.47 0.73-29.91-0.37-41.28-8.2c-4.71-3.27-8.54-7.72-10.89-13.68&#xA;&#x9;&#x9;&#x9;&#x9;c-3.73-9.38-3.51-21.33 0.22-36.2c2.89-11.56 5.23-20.88 7.05-28.13c-7.46 5.52-15.19 11.75-23.19 18.78&#xA;&#x9;&#x9;&#x9;&#x9;c3.23 30.73 7.07 57.31 11.5 79.71c0 0-0.01 0.01-0.02 0.02c0.95 4.75 1.92 9.31 2.92 13.68c0.11 0.5 0.22 0.99 0.34 1.48&#xA;&#x9;&#x9;&#x9;&#x9;c0 0 0 0 0 0c0.49 2.13 0.99 4.2 1.5 6.24c0.02 0.08 0.04 0.15 0.06 0.23c0.12 0.51 0.26 1.02 0.38 1.53&#xA;&#x9;&#x9;&#x9;&#x9;c0.14 0.52 0.27 1.04 0.41 1.56c0.02 0.11 0.05 0.21 0.07 0.31c0.87 3.37 1.76 6.62 2.67 9.73c0.06 0.19 0.11 0.38 0.17 0.56&#xA;&#x9;&#x9;&#x9;&#x9;c0.14 0.48 0.28 0.96 0.42 1.44c0.11 0.36 0.22 0.72 0.33 1.08c0.06 0.2 0.12 0.4 0.18 0.6c0.65 2.12 1.31 4.18 1.98 6.17&#xA;&#x9;&#x9;&#x9;&#x9;c0.22 0.67 0.45 1.32 0.68 1.98c0.23 0.65 0.46 1.3 0.68 1.94c0.17 0.47 0.33 0.93 0.5 1.38c0.25 0.68 0.5 1.36 0.75 2.02&#xA;&#x9;&#x9;&#x9;&#x9;c0.25 0.66 0.5 1.31 0.76 1.95c0.02 0.05 0.04 0.1 0.06 0.15l0 0c0 0 0 0.01 0 0.01c1.33 0.19 2.86 0.32 4.51 0.39&#xA;&#x9;&#x9;&#x9;&#x9;c0.02 0 0.04 0 0.07 0c1.88 0.07 3.9 0.08 5.95 0.03c-1.95-10.82-3.41-24.89-3.05-29.16c11.58 6.57 30.55 16.53 42.28 21.97&#xA;&#x9;&#x9;&#x9;&#x9;c2.8-0.94 5.56-1.92 8.27-2.95c-9.79-6.07-24.68-18.17-27.44-20.37c-0.04-0.03-0.06-0.04-0.06-0.04&#xA;&#x9;&#x9;&#x9;&#x9;c-4.97-3.97-10.01-8.29-13.13-12.73c-2.1-3.04-3.31-6.14-3.04-9.2c0.03-0.13 0.06-0.26 0.11-0.38c0-0.01 0-0.03 0.01-0.03&#xA;&#x9;&#x9;&#x9;&#x9;c0.04-0.12 0.1-0.24 0.16-0.35c0.01-0.01 0.02-0.04 0.03-0.05c0.06-0.11 0.13-0.22 0.21-0.33c0.01-0.02 0.04-0.04 0.05-0.07&#xA;&#x9;&#x9;&#x9;&#x9;c0.07-0.08 0.13-0.16 0.21-0.24c0.05-0.06 0.1-0.11 0.16-0.17c0.04-0.04 0.09-0.09 0.15-0.13c2.7-2.38 10.15-3.66 21.79-5.24&#xA;&#x9;&#x9;&#x9;&#x9;c3.19-0.43 12.36-1.47 22.71-4.54c-1.2 3.23-3.89 7.52-3.69 9.39c-0.02-0.02-0.04-0.04-0.07-0.06c0.35 2.53 1.69 3.81 4.12 4.09&#xA;&#x9;&#x9;&#x9;&#x9;c-0.01-0.01-0.03-0.03-0.04-0.04c2.03 0.28 4.8-0.11 8.32-1.14c25.22-12.48 39.12-12.96 41.83-1.42&#xA;&#x9;&#x9;&#x9;&#x9;c-13.87 15.31-27.79 27.96-41.79 37.94c-1.03 0.73-2.06 1.46-3.1 2.16c3.16-1.29 6.23-2.59 9.16-3.85&#xA;&#x9;&#x9;&#x9;&#x9;c0.35-0.15 0.7-0.31 1.05-0.46c3.47-1.51 6.73-2.94 9.74-4.21c0.12-0.06 0.25-0.11 0.37-0.16c2-0.86 3.9-1.64 5.68-2.36&#xA;&#x9;&#x9;&#x9;&#x9;c2.69-1.38 11.22-6.33 18.89-14.77C300.62 242.68 295.63 204.3 284.21 168.16z M282 209.35c-1.24 7.19-8.07 12.02-15.26 10.79&#xA;&#x9;&#x9;&#x9;&#x9;c-7.2-1.23-12.02-8.07-10.79-15.26c1.24-7.19 8.07-12.02 15.26-10.78C278.41 195.32 283.24 202.16 282 209.35z" fill="#4D17C9" />
          </g>
          <g>
            <path class="st3" d="M205.73 101.95c-10.53-0.04-40.68 1.74-59.33 9.65c-17.05 7.24-40.99 20.82-58.71 51.29&#xA;&#x9;&#x9;&#x9;&#x9;c2.82 2.58 5.75 5.64 8.8 9.22c15.07 17.71 15.32 96.72-24.15 98.23c7.83 22.09 26.2 39.86 63.77 41.77&#xA;&#x9;&#x9;&#x9;&#x9;c-5.42-4.06-9.98-9.14-13.68-15.22c-0.01 0.04-0.01 0.07-0.01 0.11c-11.91-19.33-15.31-48.91-10.19-88.69&#xA;&#x9;&#x9;&#x9;&#x9;c3.46-28.48 5.24-42.65 5.24-42.65c2.05-12.68 12.9-11.34 13.46-0.16c0.02 0.17 0.04 0.35 0.06 0.53c-0.01 0-0.02 0-0.02 0&#xA;&#x9;&#x9;&#x9;&#x9;c0.39 4.03 0.79 7.99 1.2 11.89c7.99-7.03 15.72-13.26 23.19-18.78c3.41-13.6 4.99-19.87 4.99-19.87&#xA;&#x9;&#x9;&#x9;&#x9;c3.02-13.04 20.13-9.44 18.4 3.69c-0.04 0.23-0.07 0.46-0.11 0.7c32.99-19.48 59.62-24.51 78.99-24.11&#xA;&#x9;&#x9;&#x9;&#x9;C246.25 109.29 229.94 102.04 205.73 101.95z M146.82 140.74c-0.64 3.7-4.15 6.19-7.86 5.55c-3.7-0.63-6.19-4.16-5.55-7.86&#xA;&#x9;&#x9;&#x9;&#x9;c0.63-3.7 4.16-6.19 7.86-5.55C144.98 133.53 147.46 137.04 146.82 140.74z" fill="#FF4D4D" />
          </g>
          <path class="st1" d="M232.73 41.03c13.24 0 23.97 10.73 23.97 23.97c0 13.24-10.73 23.98-23.97 23.98&#xA;&#x9;&#x9;&#x9;c-13.24 0-23.98-10.74-23.98-23.98C208.75 51.76 219.49 41.03 232.73 41.03z" fill="#4D4DFF" />
          <path class="st2" d="M171.77 214.63c5.57 0.96 9.34 6.3 8.39 11.87c-0.98 5.7-6.32 9.47-11.89 8.52&#xA;&#x9;&#x9;&#x9;c-5.71-0.98-9.48-6.32-8.5-12.02C160.72 217.42 166.07 213.65 171.77 214.63z" fill="#4D17C9" />
          <path class="st4" d="M142.75 44.76c5.59 0 10.12 4.53 10.12 10.12c0 5.59-4.53 10.12-10.12 10.12c-5.59 0-10.12-4.53-10.12-10.12&#xA;&#x9;&#x9;&#x9;C132.63 49.29 137.16 44.76 142.75 44.76z" fill="#FFC44D" />
          <path class="st5" d="M96.49 172.11c15.06 17.71 15.32 96.71-24.16 98.23c-10.02-28.27-2.77-63.6 3.61-81.75&#xA;&#x9;&#x9;&#x9;c3.41-9.69 7.39-18.21 11.75-25.7C90.52 165.47 93.45 168.53 96.49 172.11z" fill="#FF3B17" />
          <path class="st4" d="M87.69 162.89c-4.36 7.49-8.34 16.01-11.75 25.7c-6.38 18.15-13.63 53.48-3.61 81.75&#xA;&#x9;&#x9;&#x9;c-4.36 0.17-9.2-0.6-14.56-2.51c-25.98-9.24-30.46-40.2-30.4-55.99C27.44 193.08 45.07 123.87 87.69 162.89z" fill="#FFC44D" />
          <path class="st3" d="M111.25 96.15c0 8.33-6.75 15.08-15.08 15.08c-8.33 0-15.08-6.75-15.08-15.08c0-8.33 6.75-15.08 15.08-15.08&#xA;&#x9;&#x9;&#x9;C104.49 81.07 111.25 87.82 111.25 96.15z" fill="#FF4D4D" />
        </g>
      </g>
    </svg>
  </g>
  <path text="Friends" fill="#4d17c9" space="preserve" text-anchor="middle" offset="0.5" font-scale="contain" font-size="48" font-family="Caveat Brush" transform="matrix(1.6040151119232178, 0, 0, 1.6040151119232178, 413.43359444665106, 232.72501935845503)" data-fl-textpath="" font-style="normal" font-weight="400" d="M-51.338-24.48L-51.338-24L-51.668-18.29Q-51.428-18.43 -49.748-18.5Q-48.068-18.58 -47.548-18.48L-47.548-18.48L-45.768-17.66Q-45.098-17.23 -44.188-16.18L-44.188-16.18Q-43.608-14.93 -45.578-14.26L-45.578-14.26Q-47.448-13.97 -47.978-13.97L-47.978-13.97L-51.768-13.78L-51.768-11.57Q-51.478-5.66 -51.478-4.7L-51.478-4.7Q-51.238-3.26 -51.238-2.98L-51.238-2.98L-51.238-1.92Q-51.238-1.01 -51.478-0.77L-51.478-0.77Q-52.058-0.05 -52.198 0L-52.198 0Q-54.168 0.77 -56.378-0.96L-56.378-0.96L-57.148-1.97Q-57.148-2.16 -57.428-3.41L-57.428-3.41Q-57.388-3.55 -57.818-4.99L-57.818-4.99Q-57.818-5.28 -57.698-5.71Q-57.578-6.14 -57.578-6.67Q-57.578-7.2 -57.818-7.78L-57.818-7.78Q-57.818-8.4 -57.908-8.88L-57.908-8.88L-57.908-9.36Q-57.818-9.89 -57.788-10.49Q-57.768-11.09 -57.648-11.69Q-57.528-12.29 -57.628-12.82L-57.628-12.82L-57.628-12.96Q-58.298-13.3 -58.608-13.25Q-58.918-13.2 -59.278-13.56Q-59.638-13.92 -59.688-14.26Q-59.738-14.59 -58.678-15.6L-58.678-15.6Q-58.588-15.79 -57.528-16.27L-57.528-16.27L-57.528-17.23L-57.288-19.92Q-57.428-21.22 -57.288-21.89Q-57.148-22.56 -57.238-22.99L-57.238-22.99L-56.948-24.05Q-59.348-23.62 -60.408-23.86L-60.408-23.86Q-61.318-24.29 -61.368-25.25L-61.368-25.25Q-61.418-25.3 -61.128-26.64L-61.128-26.64Q-61.268-27.31 -59.978-28.32L-59.978-28.32Q-58.918-28.8 -57.958-28.99L-57.958-28.99Q-56.138-29.62 -54.698-29.81L-54.698-29.81Q-51.868-30.29 -50.138-30.62L-50.138-30.62L-47.878-31.44Q-47.108-31.87 -46.798-31.82Q-46.488-31.78 -45.868-32.02L-45.868-32.02Q-45.768-32.26 -44.758-32.45L-44.758-32.45Q-42.698-32.83 -42.358-32.02L-42.358-32.02Q-41.928-31.92 -41.208-31.34L-41.208-31.34Q-41.068-31.3 -40.108-29.47L-40.108-29.47Q-39.958-29.09 -40.248-28.68Q-40.538-28.27 -41.158-28.22L-41.158-28.22L-42.458-27.74Q-43.028-27.7 -44.088-27.22L-44.088-27.22Q-46.058-26.69 -46.298-26.69Q-46.538-26.69 -46.778-26.64L-46.778-26.64Q-47.498-26.5 -48.308-26.26Q-49.128-26.02 -49.708-26.02L-49.708-26.02Q-51.048-25.73 -51.188-25.34L-51.188-25.34Q-51.238-25.25 -51.238-25.06L-51.238-25.06L-51.338-24.48ZM-38.038-11.62L-38.468-14.16Q-38.468-14.59 -38.568-15.17L-38.568-15.17L-38.568-15.5Q-38.518-15.84 -38.618-16.22L-38.618-16.22Q-38.618-16.7 -38.518-17.09L-38.518-17.09Q-38.518-18.05 -38.278-18.34L-38.278-18.34Q-38.278-18.58 -37.608-19.44L-37.608-19.44Q-37.418-19.63 -36.888-20.06L-36.888-20.06Q-36.118-20.3 -35.828-20.35L-35.828-20.35Q-35.638-20.54 -34.538-20.21L-34.538-20.21Q-34.058-20.16 -33.048-19.87L-33.048-19.87Q-32.708-19.78 -32.188-19.1L-32.188-19.1Q-32.278-18.91 -32.498-17.69Q-32.708-16.46 -32.668-15.7L-32.668-15.7Q-32.378-15.94 -31.658-16.7Q-30.938-17.47 -30.888-17.52L-30.888-17.52Q-29.638-18.1 -28.438-18.34L-28.438-18.34Q-26.708-18.48 -26.188-18.1L-26.188-18.1Q-25.748-17.95 -25.508-17.66L-25.508-17.66Q-25.078-17.28 -24.788-16.34Q-24.508-15.41 -24.838-15.17L-24.838-15.17Q-25.128-14.93 -26.758-14.78L-26.758-14.78Q-26.858-14.78 -27.428-14.4L-27.428-14.4L-29.928-12.43Q-30.698-12.05 -30.988-11.76L-30.988-11.76L-31.898-10.08Q-31.948-9.98 -31.988-8.83Q-32.038-7.68 -31.988-7.18Q-31.948-6.67 -31.988-3.94L-31.988-3.94L-31.988-1.87Q-31.988-0.19 -32.038 0.07Q-32.088 0.34 -32.428 1.01L-32.428 1.01Q-32.568 1.25 -33.338 1.25L-33.338 1.25Q-35.208 2.64 -35.738 1.1L-35.738 1.1L-36.358 0.72Q-36.748 0.53 -36.838 0.24L-36.838 0.24Q-37.228-0.29 -37.228-0.38L-37.228-0.38L-37.418-1.06L-37.708-1.63Q-37.848-1.68 -37.948-3.48Q-38.038-5.28 -38.038-5.69Q-38.038-6.1 -38.138-6.58L-38.138-6.58Q-37.798-6.91 -37.828-7.73Q-37.848-8.54 -37.948-9Q-38.038-9.46 -37.948-9.58Q-37.848-9.7 -37.988-10.9L-37.988-10.9Q-38.138-11.09 -38.038-11.62L-38.038-11.62ZM-19.988-30.1L-19.848-30.1Q-16.628-30.1 -15.338-28.8L-15.338-28.8Q-15.338-27.98 -16.438-25.49L-16.438-25.49Q-16.628-24.67 -17.068-24.19L-17.068-24.19L-17.688-23.57Q-17.928-23.42 -18.168-23.42L-18.168-23.42Q-19.898-22.99 -20.858-24.1L-20.858-24.1Q-21.048-24.38 -21.308-24.53Q-21.578-24.67 -21.718-25.39L-21.718-25.39Q-22.148-26.02 -22.148-26.35L-22.148-26.35Q-22.248-29.33 -19.988-30.1L-19.988-30.1ZM-20.518-18.77L-20.228-18.77Q-19.748-19.01 -17.978-18.29L-17.978-18.29Q-17.788-18.1 -17.398-17.9L-17.398-17.9L-16.628-17.28Q-16.438-17.09 -16.438-16.66L-16.438-16.66L-16.438-12.43Q-16.438-11.47 -16.538-10.7L-16.538-10.7L-16.538-10.42Q-16.678-8.45 -16.298-1.54L-16.298-1.54Q-16.148-0.19 -16.918 0.1L-16.918 0.1Q-17.738 0.1 -17.978-0.14L-17.978-0.14Q-18.168-0.24 -18.308-0.24L-18.308-0.24L-18.648-0.24L-18.938-0.14Q-19.078-0.14 -19.468-0.36Q-19.848-0.58 -19.968-0.82Q-20.088-1.06 -20.378-1.1L-20.378-1.1Q-20.908-1.3 -20.948-1.82L-20.948-1.82Q-21.628-3.12 -21.648-3.36Q-21.668-3.6 -21.818-3.89L-21.818-3.89L-22.058-8.06Q-22.058-8.78 -21.958-9.17L-21.958-9.17L-21.958-10.32Q-21.908-10.85 -21.868-12.26Q-21.818-13.68 -21.718-14.54L-21.718-14.54Q-21.818-15.79 -21.818-16.22Q-21.818-16.66 -21.768-16.85L-21.768-16.85Q-22.298-17.38 -21.718-18.29L-21.718-18.29Q-21.098-18.77 -20.518-18.77L-20.518-18.77ZM-1.892-15.36L-1.892-15.36Q-1.702-16.08 -1.942-17.18L-1.942-17.18Q-2.282-17.47 -2.852-17.47L-2.852-17.47Q-3.572-17.47 -4.152-16.13L-4.152-16.13Q-4.922-14.98 -5.302-13.58L-5.302-13.58L-5.352-13.58Q-5.882-11.57 -5.882-11.42L-5.882-11.42Q-5.112-11.23 -4.632-11.26Q-4.152-11.28 -3.532-11.76L-3.532-11.76Q-2.422-12.82 -1.892-15.36ZM-2.042-8.45L-2.042-8.45L-3.812-8.3Q-5.302-8.3 -6.172-8.59L-6.172-8.59L-6.022-7.68Q-5.882-3.7 -3.812-2.45L-3.812-2.45Q-3.242-2.21 -2.852-2.21Q-2.472-2.21 -1.852-2.59L-1.852-2.59Q-1.652-2.78 -1.512-3.12L-1.512-3.12Q-1.462-3.55 -1.032-3.5L-1.032-3.5Q 0.938-6  1.948-5.47L 1.948-5.47Q 2.948-4.8  2.948-4.42L 2.948-4.42Q 2.948-4.22  2.708-3.98L 2.708-3.98L 2.708-3.7Q 2.708-3.22  2.108-1.97Q 1.508-0.72  0.838 0.14L 0.838 0.14Q 0.508 0.86 -0.022 1.15L-0.022 1.15Q-1.562 2.11 -3.292 1.92L-3.292 1.92Q-3.672 1.87 -3.812 1.73L-3.812 1.73Q-4.202 1.63 -4.392 1.68L-4.392 1.68L-4.772 1.63Q-5.212 1.63 -5.492 1.44L-5.492 1.44Q-5.972 1.15 -6.172 1.15L-6.172 1.15Q-7.412 0.67 -7.682 0.43Q-7.942 0.19 -8.132 0.1Q-8.332 0 -9.052-0.91L-9.052-0.91Q-9.672-1.44 -9.772-1.58L-9.772-1.58Q-10.052-2.02 -10.272-2.21Q-10.492-2.4 -10.532-3.07L-10.532-3.07Q-10.732-3.31 -10.732-3.7L-10.732-3.7L-10.922-4.08Q-10.922-4.42 -11.212-4.61L-11.212-4.61Q-11.492-4.9 -11.492-5.33L-11.492-5.33L-11.492-5.71Q-11.692-5.81 -11.592-6.29L-11.592-6.29L-11.592-7.54L-11.642-7.97L-11.642-8.3Q-11.692-8.5 -11.542-9.12L-11.542-9.12L-11.592-9.55Q-11.542-9.6 -11.452-10.32L-11.452-10.32Q-11.252-11.33 -11.012-11.57L-11.012-11.57L-11.012-12Q-10.972-12.14 -10.972-12.38Q-10.972-12.62 -10.852-12.91Q-10.732-13.2 -10.102-15.07L-10.102-15.07L-9.332-16.75Q-9.002-17.47 -8.282-18.34L-8.282-18.34Q-8.232-18.58 -7.892-19.2L-7.892-19.2L-7.272-19.78Q-6.982-20.21 -6.412-20.4L-6.412-20.4Q-5.732-20.74 -5.402-20.74L-5.402-20.74L-4.052-20.93Q-3.812-20.88 -3.722-20.88L-3.722-20.88L-3.092-20.88Q-2.042-20.78 -1.372-20.45L-1.372-20.45Q 0.068-20.02  0.748-19.34L 0.748-19.34Q 2.228-17.66  2.228-16.13Q 2.228-14.59  1.748-13.49L 1.748-13.49Q 0.548-10.75  0.028-10.03L 0.028-10.03Q-0.842-8.45 -2.042-8.45ZM 17.928-1.78L 17.928-1.78L 17.638-2.59L 17.108-5.81Q 16.868-6.72  16.868-7.44L 16.868-7.44L 17.068-9.55Q 17.068-10.08  17.108-10.13L 17.108-10.13Q 16.538-10.13  15.388-8.74L 15.388-8.74Q 15.288-8.59  15.098-8.26L 15.098-8.26Q 13.078-5.04  12.698-0.53L 12.698-0.53Q 12.308 0.29  11.688 0.29L 11.688 0.29Q 10.388 0  10.248 0L 10.248 0L 9.908 0.05L 9.288 0.05Q 8.188-0.05  7.848-0.82L 7.848-0.82Q 7.658-1.06  7.658-2.06L 7.658-2.06L 7.658-2.74L 7.508-5.38L 7.508-9.31Q 7.508-9.98  7.418-10.99L 7.418-10.99Q 7.318-12.1  7.368-14.47Q 7.418-16.85  7.318-17.02Q 7.228-17.18  7.228-17.47Q 7.228-17.76  7.368-18.05Q 7.508-18.34  8.668-18.67L 8.668-18.67Q 9.288-19.06  9.718-19.06L 9.718-19.06Q 10.388-18.91  11.448-18.48L 11.448-18.48Q 12.168-18.34  12.168-17.09L 12.168-17.09Q 12.268-15.02  12.188-14.11Q 12.118-13.2  12.218-10.42L 12.218-10.42Q 15.768-17.23  18.548-18.62L 18.548-18.62Q 18.788-18.86  19.268-18.86Q 19.748-18.86  20.378-18.38Q 20.998-17.9  21.238-17.76Q 21.478-17.62  21.788-17.28Q 22.108-16.94  22.298-16.85L 22.298-16.85Q 22.868-15.89  22.538-12.34L 22.538-12.34Q 22.488-11.81  22.438-11.4Q 22.388-10.99  22.388-9.65Q 22.388-8.3  22.438-7.78L 22.438-7.78Q 22.588-6.1  22.588-5.81L 22.588-5.81L 22.828-3.98Q 23.308-2.88  23.328-2.28Q 23.348-1.68  24.168-0.38L 24.168-0.38Q 24.508 0.34  23.878 0.77L 23.878 0.77Q 22.918 1.25  22.848 1.18Q 22.778 1.1  22.298 1.27Q 21.818 1.44  20.568 1.34L 20.568 1.34Q 19.948 1.2  19.318 0.58L 19.318 0.58L 18.598-0.14Q 18.218-0.72  18.068-1.39L 18.068-1.39Q 17.828-1.63  17.928-1.78ZM 37.7-12.19L 37.7-12.19L 37.61-12.91Q 37.46-13.1  37.44-13.42Q 37.42-13.73  37.27-14.4L 37.27-14.4Q 37.27-15.26  36.84-15.94L 36.84-15.94Q 36.7-16.32  35.69-16.18L 35.69-16.18Q 35.02-15.5  34.1-12.38L 34.1-12.38Q 34.1-12.34  33.96-12L 33.96-12Q 33.77-11.57  33.58-10.58Q 33.38-9.6  33.34-9.46L 33.34-9.46Q 33.24-9.17  33.24-8.93L 33.24-8.93Q 33.14-8.74  33.14-8.3L 33.14-8.3L 32.95-7.39Q 32.76-7.1  32.86-6.67L 32.86-6.67L 32.86-6Q 32.9-5.86  32.81-5.18L 32.81-5.18L 32.81-4.51L 32.9-2.88Q 32.9-2.3  33.86-1.01L 33.86-1.01Q 34.25-0.91  34.34-1.06L 34.34-1.06Q 35.3-2.02  35.4-3.02L 35.4-3.02L 35.54-3.65Q 35.78-3.89  35.93-5.09L 35.93-5.09L 36.17-5.9Q 36.17-6.34  36.36-6.82Q 36.55-7.3  36.6-7.54L 36.6-7.54Q 36.6-7.92  37.22-9.46L 37.22-9.46Q 37.18-9.6  37.18-9.74L 37.18-9.74L 37.18-10.08Q 37.7-12.14  37.7-12.19ZM 44.23-30.34L 43.8-27.7Q 43.8-26.02  43.61-25.63L 43.61-25.63L 43.27-22.51L 43.27-20.88Q 43.22-20.06  43.22-18.43Q 43.22-16.8  43.3-15.72Q 43.37-14.64  43.18-13.92L 43.18-13.92Q 43.27-13.82  43.27-13.58L 43.27-13.58L 43.32-13.2L 43.27-12.1L 43.27-10.08Q 43.32-9.55  43.32-8.26L 43.32-8.26Q 43.42-7.15  43.42-6.48Q 43.42-5.81  43.56-5.14L 43.56-5.14L 43.56-4.51L 43.75-2.54L 43.75-0.91Q 43.85-0.58  43.85-0.26Q 43.85 0.05  44.06 0.79Q 44.28 1.54  44.23 2.16L 44.23 2.16Q 42.89 3.74  40.82 2.93L 40.82 2.93Q 40.39 2.88  39.94 2.45Q 39.48 2.02  39.38 1.58L 39.38 1.58L 39.34 0.62Q 39.1 0.58  39.05-0.19L 39.05-0.19Q 38.86-0.48  38.9-0.67L 38.9-0.67Q 39.05-0.91  38.66-1.49L 38.66-1.49L 38.14-0.58Q 37.9-0.19  37.61-0.1L 37.61-0.1L 37.42 0.48Q 36.74 1.2  36.41 1.68L 36.41 1.68L 35.83 2.26Q 34.68 2.5  32.66 2.06L 32.66 2.06Q 32.18 2.06  31.9 1.97L 31.9 1.97L 31.56 1.97Q 31.46 2.06  30.5 1.54L 30.5 1.54Q 29.69 1.2  29.64 0.91L 29.64 0.91L 29.93 0.96Q 29.26 0.67  29.45 0.05L 29.45 0.05Q 28.87-0.19  28.73-1.01L 28.73-1.01L 28.3-2.64Q 28.2-3.26  28.34-3.98L 28.34-3.98Q 28.25-4.18  28.58-5.28L 28.58-5.28L 28.44-5.71L 28.34-6.58Q 28.2-6.77  28.39-7.44L 28.39-7.44L 28.1-7.92Q 28.1-9.84  28.25-10.27L 28.25-10.27L 28.3-10.9Q 28.06-11.28  28.44-12.53L 28.44-12.53L 29.11-14.74Q 29.11-14.83  29.26-15.6L 29.26-15.6Q 29.5-16.8  29.83-17.14L 29.83-17.14L 30.7-18.58Q 30.94-18.82  31.22-19.3L 31.22-19.3Q 31.7-20.16  33.24-20.16L 33.24-20.16Q 34.82-20.4  38.33-19.78L 38.33-19.78L 38.33-21.46L 38.18-23.47Q 38.18-24.91  38.11-26.11Q 38.04-27.31  38.14-28.03L 38.14-28.03Q 38.18-28.08  38.62-30Q 39.05-31.92  40.06-32.88L 40.06-32.88Q 40.39-33.07  41.28-33.12Q 42.17-33.17  42.36-33.02Q 42.55-32.88  42.89-32.78L 42.89-32.78Q 44.23-32.4  44.23-30.34L 44.23-30.34ZM 50.468-18.62L 50.468-18.62Q 51.768-20.21  54.028-20.3L 54.028-20.3Q 57.718-20.45  59.518-18.48Q 61.318-16.51  61.438-14.59Q 61.558-12.67  60.458-12.53L 60.458-12.53Q 58.868-12.48  58.388-12.96L 58.388-12.96Q 57.958-12.91  57.288-13.58L 57.288-13.58Q 56.998-13.73  56.518-14.69L 56.518-14.69L 55.988-15.89Q 55.608-16.75  55.028-16.85L 55.028-16.85Q 54.308-16.56  54.308-15.41L 54.308-15.41Q 54.508-13.15  56.468-11.09L 56.468-11.09Q 56.468-11.09  56.548-10.97Q 56.618-10.85  57.238-10.18L 57.238-10.18Q 61.028-6  61.178-3.46L 61.178-3.46Q 61.178-1.82  60.508-1.3L 60.508-1.3Q 58.438 1.15  55.128 1.25Q 51.818 1.34  49.658-0.82L 49.658-0.82Q 49.078-1.39  49.078-1.92L 49.078-1.92Q 48.788-2.83  48.888-3.12L 48.888-3.12Q 48.748-4.46  48.888-5.14L 48.888-5.14Q 49.178-6.67  51.148-6.72L 51.148-6.72Q 51.868-6.72  52.058-5.86L 52.058-5.86Q 52.678-3.41  53.228-2.64Q 53.788-1.87  55.028-1.92L 55.028-1.92Q 56.618-2.02  56.548-3.7Q 56.468-5.38  54.938-6.82L 54.938-6.82Q 54.458-7.39  53.998-7.7Q 53.548-8.02  53.398-8.16L 53.398-8.16Q 53.348-8.3  53.158-8.45L 53.158-8.45Q 52.198-9.22  50.738-10.99Q 49.268-12.77  49.178-14.3L 49.178-14.3Q 48.988-17.04  50.468-18.62Z" />
</svg>